<?xml version="1.0" encoding="UTF-8" standalone="no"?>
<svg
   xmlns:dc="http://purl.org/dc/elements/1.1/"
   xmlns:cc="http://creativecommons.org/ns#"
   xmlns:rdf="http://www.w3.org/1999/02/22-rdf-syntax-ns#"
   xmlns:svg="http://www.w3.org/2000/svg"
   xmlns="http://www.w3.org/2000/svg"
   xmlns:sodipodi="http://sodipodi.sourceforge.net/DTD/sodipodi-0.dtd"
   xmlns:inkscape="http://www.inkscape.org/namespaces/inkscape"
   width="210mm"
   height="210mm"
   viewBox="0 0 210 210"
   version="1.1"
   id="svg248"
   sodipodi:docname="elbows-colored3.svg"
   inkscape:version="1.0.1 (3bc2e813f5, 2020-09-07)"
   inkscape:export-filename="C:\Users\Faridz\Documents\UofM\elbows3.png"
   inkscape:export-xdpi="96.300003"
   inkscape:export-ydpi="96.300003">
  <defs
     id="defs242" />
  <sodipodi:namedview
     id="base"
     pagecolor="#ffffff"
     bordercolor="#666666"
     borderopacity="1.0"
     inkscape:pageopacity="0.0"
     inkscape:pageshadow="2"
     inkscape:zoom="0.7"
     inkscape:cx="342.17376"
     inkscape:cy="455.12875"
     inkscape:document-units="mm"
     inkscape:current-layer="layer1"
     inkscape:document-rotation="0"
     showgrid="false"
     inkscape:window-width="2400"
     inkscape:window-height="1284"
     inkscape:window-x="2391"
     inkscape:window-y="147"
     inkscape:window-maximized="1" />
  <metadata
     id="metadata245">
    <rdf:RDF>
      <cc:Work
         rdf:about="">
        <dc:format>image/svg+xml</dc:format>
        <dc:type
           rdf:resource="http://purl.org/dc/dcmitype/StillImage" />
        <dc:title></dc:title>
      </cc:Work>
    </rdf:RDF>
  </metadata>
  <g
     inkscape:label="Layer 1"
     inkscape:groupmode="layer"
     id="layer1">
    <g
       id="g264"
       transform="matrix(0,-1.2890702,1.29331,0,-107.75027,241.51414)"
       inkscape:export-xdpi="96"
       inkscape:export-ydpi="96">
      <path
         id="rect147-9"
         style="fill:#000000;fill-rule:evenodd;stroke-width:0.125098"
         d="m 79.282656,152.51491 c -2.205861,0.0257 -4.277839,1.14833 -5.71128,2.79208 -3.189507,3.16357 -6.377636,6.32807 -9.567892,9.49089 3.554003,3.49968 7.060041,7.05076 10.641211,10.52132 2.53016,2.20801 6.558611,2.34998 9.24233,0.3359 2.705081,-1.882 3.82542,-5.67534 2.555401,-8.71988 -0.309911,-0.7795 -0.752112,-1.50803 -1.30793,-2.13734 2.209728,-2.43203 2.436913,-6.36893 0.525031,-9.04131 -1.402271,-2.07177 -3.878892,-3.32234 -6.376871,-3.24166 z m -0.02066,0.99632 c 2.061173,0.0396 4.078062,1.05623 5.311822,2.71457 1.93543,2.45558 1.825443,6.23801 -0.257865,8.57208 0.42314,0.48785 0.773681,1.03885 1.039212,1.62729 1.33078,2.80767 0.406045,6.44044 -2.105814,8.26927 -2.439021,1.92053 -6.186794,1.8292 -8.524544,-0.21756 -3.278751,-3.18389 -6.472804,-6.4584 -9.717238,-9.679 2.884228,-2.88877 5.772528,-5.7733 8.658386,-8.66045 1.300761,-1.50591 3.165647,-2.57103 5.183148,-2.62103 0.137581,-0.006 0.275481,-0.008 0.412893,-0.005 z" />
      <path
         id="path61"
         style="fill:#000000;stroke-width:0.062207"
         d="m 23.041239,89.040894 c 0.740717,-3.37561 1.016404,-8.8942 1.499402,-3.45588 -0.0869,3.22309 -0.02395,2.5058 0.427084,8.86048 2.304881,23.284926 3.945859,40.032906 13.370294,59.800916 2.83112,5.93837 4.0173,9.6491 10.73623,7.3736 20.781001,-9.26828 41.204607,-20.53748 57.411001,-33.75845 3.15449,-2.46942 3.96778,-4.21096 0.89424,-8.23737 -2.75194,-2.55137 -5.06157,-8.2542 -5.55759,-9.61754 -10.859676,1.31169 -29.306185,12.99825 -40.997109,22.72437 0.218929,3.65676 -1.566101,7.82381 -1.437662,10.94039 -2.61539,1.45331 0.1117,-6.50797 -0.0403,-8.32896 0.209758,-15.30544 -4.540568,-30.67734 -6.92996,-44.426746 -1.06372,-3.05795 -1.18465,-8.47524 -3.70339,-9.85979 2.210619,-0.008 3.555279,5.30632 4.886419,7.46483 4.141192,12.079596 5.961801,25.860486 7.460322,37.338536 -0.0582,2.31125 -0.75542,4.8786 2.427398,2.1913 6.400842,-3.52155 33.676818,-25.3588 39.222052,-19.55035 2.81664,-0.67817 4.53221,-3.90894 5.3224,-6.66933 1.23521,-3.119846 5.62219,-4.881646 8.35911,-5.760346 2.7366,-3.14871 6.3233,-2.17801 7.19093,0.0837 -0.45753,3.50424 2.86407,1.1178 1.87706,6.174676 2.48041,1.28436 0.95152,2.79575 1.58104,4.35088 2.29936,0.55618 0.88599,4.91291 -0.62596,5.99493 -5.28867,3.25425 1.25634,-2.49162 0.71124,-4.48905 -0.75597,-2.3971 -3.8382,1.38066 -1.84259,-1.32235 1.73229,-3.57383 0.40021,-4.12451 -1.98474,-2.21483 0.49418,-2.0922 2.69379,-3.96022 0.62311,-5.166826 -1.39012,-0.73682 -2.52457,2.721936 -2.44595,2.203646 0.18388,-1.21216 0.0778,-1.49964 0.7946,-2.550686 1.46537,-2.14992 -0.89752,-4.35772 -2.54378,-3.68202 -2.33562,1.03116 -3.28551,2.27528 -1.72657,2.3082 2.13442,-0.90541 3.08293,-1.23475 1.53669,0.92134 0,0 -1.07709,1.366416 -3.26626,2.881056 -0.95739,0.66241 -0.95707,0.66128 -3.81204,1.87376 -1.37196,0.58266 -2.40875,1.14807 -2.40875,1.14807 -2.46518,1.02151 -2.74427,2.91989 -5.66594,4.6705 -1.69337,1.70061 -0.0819,3.37834 1.14489,5.83102 1.2569,2.51284 1.8513,4.53764 6.85418,3.15185 4.0412,-0.84774 8.99475,-2.38522 13.72374,-6.4199 2.78755,-0.20021 -3.42248,3.91921 -6.2031,5.43786 -7.43744,2.72778 -6.92532,0.86378 -9.69788,3.84084 1.62828,3.58772 -0.66037,4.99654 -1.06256,6.02795 -18.893826,18.76622 -33.584675,22.41337 -51.100981,32.90015 -10.44643,3.82364 -11.4422,8.67918 -18.75882,-0.41218 C 31.9648,147.29566 27.901044,131.93997 26.826647,127.77281 24.344964,116.5839 23.536226,103.91627 22.939037,94.342904 c 0.06137,-1.96363 0.01455,-3.32391 0.102182,-5.30198 z m 85.406451,14.541466 c -0.95565,1.21361 2.6403,0.43331 4.01035,-0.14524 2.86698,-1.21068 2.8913,-1.15936 3.78833,-1.78031 1.09466,-0.75776 2.22808,-1.657396 2.62918,-2.178976 -0.35868,-0.93325 -0.43559,-0.97028 -0.57036,-1.16955 -0.73072,-1.08058 -2.60183,-0.23444 -3.41482,0.0515 -1.28919,0.40561 -4.16751,1.29472 -6.44268,5.222556 z"
         sodipodi:nodetypes="cccccccccccccccccccccccccccsccccssccscccccccccccssscccss" />
      <path
         id="path61-9"
         style="fill:#000000;stroke-width:0.062207"
         d="m 23.041243,240.55434 c 0.74072,3.37561 1.0164,8.89419 1.4994,3.45588 -0.0869,-3.22309 -0.024,-2.5058 0.42709,-8.86048 2.30488,-23.28493 3.945851,-40.03291 13.37029,-59.80092 2.83112,-5.93836 4.0173,-9.6491 10.73623,-7.37359 20.781,9.26828 41.204592,20.53747 57.410987,33.75845 3.15449,2.46942 3.96778,4.21095 0.89423,8.23737 -2.75193,2.55137 -5.06155,8.25419 -5.55758,9.61753 -10.859677,-1.3117 -29.306186,-12.99825 -40.997097,-22.72437 0.21893,-3.65675 -1.5661,-7.8238 -1.437661,-10.94038 -2.615388,-1.45332 0.111702,6.50796 -0.0403,8.32895 0.209752,15.30544 -4.54057,30.67734 -6.929961,44.42675 -1.063718,3.05795 -1.184648,8.47524 -3.703389,9.85979 2.21062,0.008 3.555281,-5.30632 4.886421,-7.46483 4.141189,-12.0796 5.9618,-25.86049 7.460318,-37.33854 -0.0582,-2.31124 -0.75542,-4.87859 2.427391,-2.1913 6.40085,3.52156 33.676812,25.3588 39.222038,19.55035 2.81665,0.67817 4.53221,3.90894 5.32241,6.66932 1.23521,3.11986 5.62218,4.88166 8.3591,5.76036 2.7366,3.14871 6.3233,2.17801 7.19094,-0.0837 -0.45753,-3.50424 2.86407,-1.1178 1.87706,-6.17468 2.48041,-1.28436 0.95152,-2.79575 1.58104,-4.35088 2.29936,-0.55618 0.88599,-4.91291 -0.62596,-5.99493 -5.28868,-3.25424 1.25634,2.49162 0.71124,4.48905 -0.75597,2.3971 -3.8382,-1.38066 -1.84259,1.32234 1.73229,3.57384 0.40021,4.12452 -1.98474,2.21484 0.49418,2.0922 2.69379,3.96022 0.62311,5.16683 -1.39011,0.73682 -2.52458,-2.72194 -2.44596,-2.20365 0.18388,1.21216 0.0778,1.49963 0.7946,2.55069 1.46538,2.14992 -0.89752,4.35772 -2.54377,3.68202 -2.33562,-1.03116 -3.28552,-2.27528 -1.72656,-2.3082 2.13441,0.90541 3.08292,1.23475 1.53667,-0.92134 0,0 -1.07707,-1.36642 -3.26626,-2.88107 -0.95739,-0.6624 -0.95705,-0.66127 -3.81204,-1.87375 -1.37194,-0.58266 -2.40875,-1.14807 -2.40875,-1.14807 -2.46517,-1.02151 -2.74425,-2.91989 -5.66593,-4.6705 -1.69336,-1.70061 -0.0819,-3.37834 1.1449,-5.83101 1.2569,-2.51285 1.8513,-4.53765 6.85416,-3.15186 4.04122,0.84774 8.99477,2.38523 13.72375,6.4199 2.78755,0.20021 -3.42247,-3.9192 -6.20311,-5.43785 -7.43742,-2.72778 -6.92532,-0.86378 -9.69788,-3.84084 1.62828,-3.58773 -0.66036,-4.99654 -1.06256,-6.02795 -18.893816,-18.76622 -33.584666,-22.41337 -51.100956,-32.90016 -10.446431,-3.82362 -11.442201,-8.67916 -18.758821,0.41219 -7.317939,12.31746 -11.381699,27.67317 -12.45609,31.84032 -2.48168,11.18892 -3.29042,23.85654 -3.88761,33.42991 0.0614,1.96362 0.0145,3.32391 0.10218,5.30198 z m 85.406427,-14.54147 c -0.95564,-1.21361 2.64031,-0.43331 4.01035,0.14524 2.86698,1.21068 2.89131,1.15935 3.78834,1.7803 1.09467,0.75777 2.22808,1.65741 2.62919,2.17899 -0.35869,0.93324 -0.43561,0.97028 -0.57037,1.16955 -0.73072,1.08058 -2.60183,0.23444 -3.41482,-0.0515 -1.28919,-0.40561 -4.16751,-1.29472 -6.44269,-5.22256 z"
         sodipodi:nodetypes="cccccccccccccccccccccccccccsccccssccscccccccccccssscccss" />
    </g>
    <path
       style="fill:#aaeeff;stroke-width:0.122365"
       d="m 0.0739841,209.50032 c -0.03932011,-0.33707 -0.74126011,-7.45775 -1.5598625,-15.82373 l -1.4883738,-15.21088 0.4123355,-0.43024 c 1.2173892,-1.27023 3.21926583,-2.03128 7.7858337,-2.95986 1.0138555,-0.20616 2.4593712,-0.53603 3.2122573,-0.73299 0.7528884,-0.197 2.4119257,-0.55282 3.6867497,-0.79075 3.517378,-0.65642 6.009754,-1.16549 13.193774,-2.69483 20.410133,-4.34495 28.75101,-5.57346 38.895201,-5.72885 l 4.178317,-0.064 3.195181,0.63116 c 3.49728,0.69085 5.736964,0.90283 6.449073,0.61039 0.427205,-0.17543 0.573009,-0.55847 0.40426,-1.06197 -0.113708,-0.33928 -0.118196,-0.34054 -1.517425,-0.41899 -0.966539,-0.0541 -2.550963,-0.30828 -5.090124,-0.81635 -3.790327,-0.75839 -5.431987,-0.99347 -6.938204,-0.99347 h -0.864759 l -1.990176,-2.46729 C 50.170385,145.83527 40.004935,128.7948 36.217421,117.26432 c -0.794647,-2.41916 -1.189634,-4.01817 -1.617702,-6.54885 l -0.07729,-0.45691 h 13.930256 13.930246 l 1.793965,2.40633 c 7.976034,10.69864 15.765806,23.10545 23.507508,37.4406 3.408332,6.31115 8.747627,17.08144 12.257226,24.72503 2.04881,4.46209 2.42812,5.68789 2.42812,7.84666 0,3.1021 -1.58083,5.01816 -5.963497,7.22817 -3.425094,1.72711 -9.730045,4.55469 -13.436037,6.02564 -14.847815,5.89326 -29.052837,9.06281 -52.061942,11.61648 -13.333725,1.47987 -22.3010319,2.25818 -26.0530272,2.26132 -1.2842177,0.001 -2.8692764,0.07 -3.5223527,0.1532 l -1.18741336,0.15122 z"
       id="path270"
       inkscape:export-xdpi="96"
       inkscape:export-ydpi="96" />
    <path
       style="fill:#aaeeff;stroke-width:0.345095"
       d="m 39.561433,108.25125 c 2.091259,-1.03146 4.735574,-2.65229 5.876262,-3.60182 4.380465,-3.64643 6.886235,-4.52158 9.056491,-3.16307 1.026856,0.64278 4.037789,4.06047 6.411551,7.2777 l 1.010725,1.36987 -13.078658,-0.003 -13.078658,-0.003 z"
       id="path272"
       inkscape:export-xdpi="96"
       inkscape:export-ydpi="96" />
    <path
       style="fill:#aaeeff;stroke-width:0.0229618"
       d="m 36.35599,110.26922 -1.833554,-0.0129 2.320654,-1.12201 c 1.276361,-0.61708 2.577723,-1.25827 2.891913,-1.42488 2.126432,-1.12738 4.067087,-2.33547 5.153597,-3.20814 1.950188,-1.56642 3.326566,-2.50198 4.605604,-3.13045 1.736872,-0.85348 3.098942,-1.0193 4.36766,-0.53169 0.268154,0.10293 0.628947,0.29254 0.854185,0.44862 1.024252,0.70975 3.593355,3.51276 5.893262,6.42988 0.398374,0.50529 1.926195,2.5142 1.941852,2.55331 0.008,0.0201 -22.945823,0.0176 -26.195173,-0.003 z"
       id="path274"
       inkscape:export-xdpi="96"
       inkscape:export-ydpi="96" />
    <path
       style="fill:#aaeeff;stroke-width:0.162127"
       d="m 41.519746,109.98156 c 3.812175,-0.17343 10.043818,-0.17343 13.848099,0 3.804281,0.17345 0.685229,0.30835 -6.931226,0.30835 -7.616454,0 -10.729047,-0.1349 -6.916873,-0.30835 z"
       id="path276"
       inkscape:export-xdpi="96"
       inkscape:export-ydpi="96" />
    <path
       style="fill:#ffaaaa;stroke-width:0.347081"
       d="m 203.65389,210.33916 c -9.43497,-0.45894 -30.18977,-2.74812 -40.93595,-4.51507 -17.34455,-2.85192 -30.35369,-6.88467 -45.17476,-14.0039 -5.37829,-2.58344 -7.72268,-4.26753 -8.47772,-6.08999 -0.25416,-0.61351 -0.37002,-1.98244 -0.28605,-3.37993 0.16524,-2.74939 1.55579,-6.04421 8.46113,-20.04813 9.58823,-19.44474 19.93641,-36.74251 30.10431,-50.32161 6.66367,-8.89928 8.98312,-11.27897 10.99339,-11.27897 1.31304,0 4.08123,1.4655 6.22662,3.29641 2.11955,1.80881 5.47298,3.81681 8.71625,5.21914 1.24096,0.53655 2.38972,1.08961 2.55285,1.22898 0.42011,0.35898 -1.19097,6.47752 -2.73425,10.3841 -4.32519,10.94862 -13.05763,25.34999 -23.49697,38.75082 l -2.74655,3.52571 -2.14748,0.24009 c -1.1811,0.13207 -3.55329,0.52279 -5.27152,0.86831 -1.71824,0.34552 -4.03059,0.73919 -5.13856,0.87485 -1.79484,0.21978 -2.00304,0.32721 -1.90915,0.98522 0.15183,1.06429 1.70738,1.11206 6.49956,0.19955 3.50074,-0.66656 4.73591,-0.73897 9.57319,-0.56112 9.63475,0.35425 15.86501,1.31088 36.62086,5.62297 17.72478,3.68241 23.3194,4.94549 25.55269,5.76902 3.22162,1.18799 3.10657,-0.23622 1.43398,17.75741 -1.41194,15.18903 -1.50258,15.84963 -2.16777,15.79906 -0.38184,-0.029 -3.19348,-0.17434 -6.2481,-0.32292 z"
       id="path280"
       inkscape:export-xdpi="96"
       inkscape:export-ydpi="96" />
    <path
       style="fill:#ffe680;stroke-width:0.354214"
       d="m 98.774578,151.10369 c -3.6316,-3.65295 -6.893346,-7.19967 -7.248319,-7.88153 -0.440953,-0.84707 -0.648371,-2.02531 -0.654765,-3.71939 -0.0079,-2.07706 0.148725,-2.7485 0.964361,-4.13609 1.94132,-3.30262 4.785313,-4.76191 8.725035,-4.47691 1.46208,0.10569 2.51757,0.42383 3.46329,1.04366 l 1.36031,0.89154 1.9,-1.00038 c 5.89152,-3.10193 12.78386,1.03772 12.78386,7.67818 0,3.50431 -0.72589,4.58997 -7.87496,11.77803 -3.53628,3.55554 -6.51652,6.46465 -6.62274,6.46465 -0.10626,0 -3.16448,-2.9888 -6.796072,-6.64176 z"
       id="path282"
       inkscape:export-xdpi="96"
       inkscape:export-ydpi="96" />
    <path
       style="fill:#f9f9f9;stroke-width:0.345095"
       d="m 33.794971,106.73113 c -0.41337,-0.50034 -1.850407,-2.08947 -3.193417,-3.53142 -1.387529,-1.48975 -2.853631,-3.490953 -3.395582,-4.634897 -0.524564,-1.107249 -1.008056,-1.959051 -1.07443,-1.892889 -0.06637,0.06617 0.105364,1.095485 0.381626,2.287392 0.276262,1.191924 0.410078,2.315834 0.297368,2.497624 -0.272542,0.43952 -2.876377,-1.37149 -4.307172,-2.99573 -1.534314,-1.741758 -3.188079,-5.354647 -3.384721,-7.394394 -0.149123,-1.546879 -0.09438,-1.691818 0.790934,-2.093869 0.898312,-0.407956 1.015728,-0.355994 2.113745,0.935404 0.639426,0.752037 1.793292,2.530133 2.564146,3.951317 0.770851,1.421184 1.298995,2.196369 1.173652,1.722641 -0.422678,-1.597474 -2.352295,-4.891718 -3.815492,-6.513812 -1.494056,-1.656307 -3.730078,-3.111117 -4.145437,-2.697118 -0.128796,0.128372 -0.0357,0.939976 0.206884,1.803555 0.745402,2.653588 -0.383161,2.42507 -1.731237,-0.350549 -0.680574,-1.401285 -0.692928,-1.569856 -0.186547,-2.545883 0.921455,-1.77604 2.745449,-2.276088 4.312316,-1.182223 0.935935,0.653408 3.481727,1.208646 3.481727,0.759366 0,-0.164056 -0.143613,-0.298264 -0.319142,-0.298264 -0.64472,0 -2.446157,-1.804061 -2.446157,-2.449725 0,-0.366196 0.367935,-0.832904 0.817632,-1.037135 0.671582,-0.304986 1.241972,-0.184975 3.193232,0.67187 1.306578,0.573746 2.428768,0.990181 2.493756,0.925409 0.06498,-0.0648 -0.244244,-0.754059 -0.687179,-1.531749 -0.69674,-1.223302 -0.735418,-1.458567 -0.286844,-1.74469 0.627358,-0.40016 1.37492,-0.214654 3.584677,0.889546 1.770002,0.884451 1.833544,0.830605 1.101103,-0.933179 -0.331851,-0.799129 0.735766,-1.757215 1.658984,-1.488782 0.407723,0.118547 1.773715,0.888603 3.035535,1.711236 1.873091,1.221143 2.598917,1.982959 3.95417,4.150251 2.029146,3.244958 3.618261,7.333516 4.849146,12.476155 1.425486,5.955652 1.082353,6.605752 -5.198708,9.849362 -3.583482,1.85055 -4.76153,1.9888 -5.838568,0.68518 z"
       id="path284"
       inkscape:export-xdpi="96"
       inkscape:export-ydpi="96" />
    <path
       style="fill:#ffeeaa;stroke-width:0.345095"
       d="m 170.16029,105.50546 c -4.26622,-2.32006 -4.90105,-3.0261 -4.90105,-5.45087 0,-1.89223 1.52624,-7.809848 2.8418,-11.018341 0.58272,-1.421184 1.74936,-3.756219 2.59253,-5.188972 1.23724,-2.102347 1.9447,-2.88075 3.66638,-4.034069 2.82619,-1.893212 3.78325,-2.233204 4.60351,-1.63538 0.56422,0.411215 0.5898,0.600974 0.21461,1.591713 -0.23429,0.618661 -0.37456,1.176086 -0.31172,1.238724 0.0628,0.06261 0.79899,-0.257557 1.63589,-0.711533 3.32068,-1.801312 4.58586,-1.30795 3.12662,1.219232 -0.41882,0.725326 -0.66625,1.318764 -0.54986,1.318764 0.1164,0 1.31801,-0.483999 2.67025,-1.075553 2.52362,-1.103993 3.07183,-1.085306 3.84155,0.130958 0.43671,0.690056 -0.39365,1.715874 -1.8885,2.333036 -0.5566,0.229793 -1.01199,0.550161 -1.01199,0.711919 0,0.42111 2.02408,-0.0216 3.52926,-0.771981 1.77471,-0.884705 2.75325,-0.801333 3.83781,0.326986 1.03675,1.078596 1.16379,2.060311 0.44572,3.444364 -0.57788,1.11382 -1.85767,2.328843 -2.1481,2.039356 -0.11403,-0.113621 0.065,-0.917184 0.39769,-1.785633 0.33276,-0.868438 0.50976,-1.673919 0.39335,-1.789953 -0.49017,-0.488571 -2.46923,0.813087 -4.35506,2.864391 -1.63664,1.780245 -2.4085,3.067036 -4.04896,6.750096 -1.81694,4.079296 -2.30896,4.854576 -4.75114,7.486406 -3.5698,3.847 -3.92703,4.14237 -5.00497,4.1381 -0.50176,-0.002 -2.67328,-0.96129 -4.82562,-2.13176 z"
       id="path286"
       inkscape:export-xdpi="96"
       inkscape:export-ydpi="96" />
    <path
       style="fill:#ffeeaa;stroke-width:0.345095"
       d="m 183.92501,100.75886 c 0,-2.511738 2.54429,-8.208351 4.77407,-10.689015 1.15713,-1.287343 1.49689,-1.488023 2.00252,-1.182832 1.1511,0.694801 1.35258,1.394875 0.89363,3.105201 -1.00992,3.763618 -3.70215,7.518642 -6.60197,9.208176 l -1.06825,0.6224 z"
       id="path288"
       inkscape:export-xdpi="96"
       inkscape:export-ydpi="96" />
    <path
       style="fill:#ffeeaa;stroke-width:0.345095"
       d="m 34.771701,107.30897 c -1.241158,-0.5174 -6.453973,-6.70665 -7.772852,-9.228822 -0.83202,-1.591121 -1.259776,-1.922529 -0.889402,-0.689068 0.128023,0.426361 0.315665,1.522799 0.416984,2.436536 l 0.184213,1.661354 -1.11126,-0.57277 c -1.46025,-0.75266 -3.921357,-3.297326 -4.473099,-4.624982 -0.24078,-0.579399 -0.548534,-1.053437 -0.683901,-1.053437 -0.135362,0 -0.265486,-0.193799 -0.289162,-0.430657 -0.02368,-0.23687 -0.294699,-1.334767 -0.602275,-2.439788 -0.616053,-2.21328 -0.535422,-2.762694 0.485336,-3.307203 0.568655,-0.303342 0.852062,-0.191513 1.661419,0.655545 1.34995,1.412831 1.528532,1.67169 2.692002,3.902008 1.287231,2.467567 1.81096,2.596996 0.630599,0.155841 -1.273027,-2.632794 -2.809226,-4.633664 -4.725159,-6.154429 -2.321145,-1.842386 -2.716222,-1.779981 -2.428273,0.383566 0.27734,2.083851 -0.142988,2.22069 -1.178795,0.38375 -1.015649,-1.801166 -0.951461,-2.652612 0.293519,-3.893518 1.147443,-1.143679 1.267048,-1.143254 4.472541,0.01562 1.040372,0.376133 2.003006,0.615243 2.139186,0.531354 0.136181,-0.08387 -0.397971,-0.752737 -1.187009,-1.486334 -1.242562,-1.155249 -1.372876,-1.407949 -0.973458,-1.88764 0.635985,-0.763799 1.640071,-0.694847 4.033658,0.276988 1.125454,0.456966 2.084559,0.793475 2.131347,0.747831 0.04679,-0.04561 -0.21112,-0.689952 -0.573135,-1.431775 -0.362011,-0.741812 -0.585549,-1.465927 -0.496748,-1.609137 0.280851,-0.452939 1.623937,-0.268863 3.18295,0.436238 0.828746,0.374822 1.624231,0.681491 1.767738,0.681491 0.14351,0 0.243186,-0.581392 0.221502,-1.291983 -0.03464,-1.134886 0.06565,-1.303863 0.824729,-1.38968 1.215404,-0.137401 5.074795,2.486341 6.47852,4.404315 0.62408,0.852699 1.249408,1.705409 1.38962,1.8949 0.266482,0.360153 1.913051,3.662829 1.975319,3.962093 0.05442,0.261512 1.589547,4.922714 1.815486,5.512464 0.108899,0.284237 0.232983,0.671835 0.275753,0.861326 1.19793,5.307633 1.130922,7.220293 -0.294853,8.416073 -1.552908,1.3024 -4.537615,3.00567 -6.642387,3.79059 -1.051837,0.39225 -1.945485,0.70336 -1.98588,0.69134 -0.0404,-0.0121 -0.384545,-0.15152 -0.764773,-0.31003 z"
       id="path290"
       inkscape:export-xdpi="96"
       inkscape:export-ydpi="96" />
    <path
       style="fill:none;stroke:#000000;stroke-width:0.603678px;stroke-linecap:butt;stroke-linejoin:miter;stroke-opacity:1"
       d="m 97.547437,195.96658 c -83.311874,48.44726 0,0 0,0 z"
       id="path294"
       inkscape:export-xdpi="96"
       inkscape:export-ydpi="96" />
    <path
       style="fill:none;stroke:#000000;stroke-width:0.603681px;stroke-linecap:butt;stroke-linejoin:miter;stroke-opacity:1"
       d="m 113.22084,195.96658 c 83.31189,48.44726 0,0 0,0 z"
       id="path294-5"
       inkscape:export-xdpi="96"
       inkscape:export-ydpi="96" />
    <path
       style="fill:none;stroke:#000000;stroke-width:0.491472px;stroke-linecap:butt;stroke-linejoin:miter;stroke-opacity:1"
       d="m 112.03245,200.33858 c 43.38518,61.66232 0,0 0,0 z"
       id="path294-5-3"
       inkscape:export-xdpi="96"
       inkscape:export-ydpi="96" />
    <path
       style="fill:none;stroke:#000000;stroke-width:0.491471px;stroke-linecap:butt;stroke-linejoin:miter;stroke-opacity:1"
       d="m 98.735843,200.33887 c -43.385183,61.66232 0,0 0,0 z"
       id="path294-5-3-5"
       inkscape:export-xdpi="96"
       inkscape:export-ydpi="96" />
    <path
       style="fill:none;stroke:#000000;stroke-width:0.491471px;stroke-linecap:butt;stroke-linejoin:miter;stroke-opacity:1"
       d="m 167.16605,149.28722 c 43.3852,-61.662309 0,0 0,0 z"
       id="path294-5-3-52"
       inkscape:export-xdpi="96"
       inkscape:export-ydpi="96" />
    <path
       style="fill:none;stroke:#000000;stroke-width:0.491471px;stroke-linecap:butt;stroke-linejoin:miter;stroke-opacity:1"
       d="m 43.602235,149.28719 c -43.38518558,-61.662302 0,0 0,0 z"
       id="path294-5-3-52-5"
       inkscape:export-xdpi="96"
       inkscape:export-ydpi="96" />
    <g
       id="g430"
       transform="matrix(1.3320907,0,0,1.1296051,-48.019022,-21.607489)"
       inkscape:export-xdpi="96"
       inkscape:export-ydpi="96">
      <path
         style="fill:none;stroke:#000000;stroke-width:0.444019px;stroke-linecap:butt;stroke-linejoin:miter;stroke-opacity:1"
         d="m 167.43272,161.44233 c 53.24383,-41.01074 0,0 0,0 z"
         id="path294-5-3-52-7" />
      <path
         style="fill:none;stroke:#000000;stroke-width:0.444019px;stroke-linecap:butt;stroke-linejoin:miter;stroke-opacity:1"
         d="m 62.886691,161.44231 c -53.2438476,-41.01074 0,0 0,0 z"
         id="path294-5-3-52-5-4" />
    </g>
  </g>
</svg>
